<svg xmlns="http://www.w3.org/2000/svg" viewBox="0 0 178.98 159.07"><defs><style>.cls-1{fill:#fff;}.cls-1,.cls-2{stroke:#000;stroke-linecap:round;stroke-linejoin:round;stroke-width:4.06px;}.cls-2{fill:none;}</style></defs><title>Asset 3</title><g id="Layer_2" data-name="Layer 2"><g id="svg32847"><g id="layer1"><g id="g5439"><g id="g3915-6-1-6-3-8-9-4"><path id="path3894-6-1-0-5-5-2-9" class="cls-1" d="M44.42,150.57c-3,8.32-10,7.33-17.15,4.15-10.15-4.5-23.64-25.05-25-34.74-1.23-8.9,2-15.87,8.88-16.78"/><path id="path3112-2-8-6-8-2-9-8" class="cls-1" d="M10.8,30.32C0,32.67,6,49.78,15.09,66.49c3.53,6.49-6.46,33-.3,49.86,4,11,19.05,31,29.66,33.79,18.16,4.73,34.11,1.64,50.06-6.85A80.49,80.49,0,0,0,110.26,132c14.23-13,61.37-29.23,64.37-33.36C183,87.2,166.74,79.92,157.8,82.91c-4.33,1.44-37.33,8.31-32.94,4.62,10.81-9,24.9-18.63,38.73-26.93,20.69-12.41-5-34.53-24.25-22.71-9,5.54-17.2,9.11-37,21.94,7.39-11,17.41-27.48,25.79-37.08,13.82-15.85-14.53-31.1-31-11.38C85.83,24.8,68.24,51.22,44.12,68.88c.2-15.1-.72-45.63-33.32-38.56Z"/><path id="path3882-6-1-33-9-9-7-9" d="M101,57.36C91.21,70.08,89.11,78.84,87.57,82.71c5.9-8.14,7.18-10.36,14.13-18.57a22,22,0,0,1,5-4.24Z"/><path id="path3884-6-1-2-9-6-6-0" d="M123.22,85.65c-7.2,6-14.43,15-17.69,22.23,3.88-3.36,10.5-9.18,16.3-14.4a9.61,9.61,0,0,1,6.33-2.5c-2-1.42-3.4-3.44-4.94-5.33Z"/><path id="path3886-8-5-4-3-7-0-8" class="cls-2" d="M44.07,135.28c12.39-3.64,15-5.86,20.67-8.52"/><path id="path3888-4-4-9-8-4-7-4" class="cls-2" d="M36.13,126.85c12.28-7.27,17.5-11.93,25.25-17.53"/><path id="path3890-1-8-5-1-8-9-7" class="cls-2" d="M27,116.51c7.71-6.09,10.78-9.68,15.28-14.05"/></g></g></g></g></g></svg>