<svg xmlns="http://www.w3.org/2000/svg" viewBox="0 0 136.26 116.2"><defs><style>.cls-1{fill:#fff;}.cls-1,.cls-2{stroke:#000;stroke-linecap:round;stroke-linejoin:round;stroke-width:4.06px;}.cls-2{fill:none;}</style></defs><title>Asset 2</title><g id="Layer_2" data-name="Layer 2"><g id="svg32847"><g id="layer1"><g id="g32290"><path id="path32292" class="cls-1" d="M118.78,76.82c8.15,3.34,12.07-2.54,14.48-10,3.42-10.56-2.89-34.32-9.2-41.78-5.84-6.85-13.06-9.14-18.44-4.58"/><path id="path32294" class="cls-1" d="M50.92,2.78c18.91-4.1,51.69,9,62.15,29.13,5.29,10.4,10.34,34.91,5.3,44.65-8.54,16.68-21.56,26.5-38.51,32.73A81.13,81.13,0,0,1,61,113.5c-24,2.59-43-2.1-42.83-18.81C-2.21,92.85-2.37,61.94,12.54,59.4-7.24,46.78,5.31,21.79,27.47,27.68,29.61,23.84,31.28,7.05,50.92,2.78Z"/><path id="path32296" d="M13.65,61.81c15.85,2.36,21.82-.56,26-1.08-10-1.22-12.59-1.26-23.13-3.35a14.28,14.28,0,0,1-5.83-2.45l.1,7.61a9.73,9.73,0,0,1,2.85-.73Z"/><path id="path32298" d="M16.56,97c9.4.38,21-.23,28.23-3.35-5.17-.13-18.52-1.35-26.31-1.39,0,0,0,0-1.92,4.74Z"/><path id="path32300" class="cls-2" d="M107.63,66.35c-11,6.8-14.42,7.28-20.14,9.71"/><path id="path32302" class="cls-2" d="M106.65,54.81C93,59.12,86,59.9,76.75,61.93"/><path id="path32304" class="cls-2" d="M105.07,41.08c-9.71,1.68-14.46,1.57-20.63,2"/><path id="path32306" d="M25.85,25.1C47,26.56,54,19.08,63.7,13.3c-9.69,8-12,17.06-36.45,16.88l-1.4-5.08Z"/></g></g></g></g></svg>