<svg xmlns="http://www.w3.org/2000/svg" viewBox="0 0 183.03 128.54"><defs><style>.cls-1{fill:#fff;}.cls-1,.cls-2{stroke:#000;stroke-linecap:round;stroke-linejoin:round;stroke-width:4.06px;}.cls-2{fill:none;}</style></defs><title>Asset 1</title><g id="Layer_2" data-name="Layer 2"><g id="svg32847"><path id="imagebot_18" data-name="imagebot 18" class="cls-1" d="M13.91,62.53c-8.69,1.41-11.17-5.21-11.83-13C1.16,38.44,12.7,16.74,20.55,10.9c7.24-5.34,14.8-5.93,19-.26"/><path id="imagebot_17" data-name="imagebot 17" class="cls-1" d="M96.83,5.87c-17.48-8.3-52.39-3-67.15,14.23-7.51,8.93-18,31.64-15.31,42.28,4.53,18.19,15,30.71,30.06,40.63a81.32,81.32,0,0,0,17.44,8.4c20.62,6.72,38.69-3.89,46-8.58,13.13,5.13,28.31,12.89,42.23,21,20.82,12.19,27.89-21,8.27-32.17-9.19-5.25-16.25-10.72-37-22,13.18,1.21,32.46,2.08,44.91,4.81,20.54,4.52,20.3-27.68-4.92-32.67-17.18-3.4-30.92-3.26-47.32-6.42-1.21-4.23,1-21-17.17-29.58"/><path id="imagebot_16" data-name="imagebot 16" d="M122.82,67.36c-15.84-2.45-24.52-.08-28.71.41,10,1.28,12.58,1.34,23.11,3.49a22,22,0,0,1,6.13,2.35Z"/><path id="imagebot_15" data-name="imagebot 15" d="M108.7,100.47c-8.77-3.42-20.14-5.44-28-4.85C90.28,99.13,97.83,101.9,107,105c0,0,.75-2.31,1.67-4.56Z"/><path id="imagebot_14" data-name="imagebot 14" class="cls-2" d="M27.15,54.88c9.17,9.12,12.39,10.36,17.4,14"/><path id="imagebot_13" data-name="imagebot 13" class="cls-2" d="M30.73,43.87C43,51.16,49.66,53.51,58.23,57.6"/><path id="imagebot_12" data-name="imagebot 12" class="cls-2" d="M35.39,30.85c9.07,3.84,13.72,4.82,19.63,6.64"/><path id="imagebot_11" data-name="imagebot 11" d="M116.17,33.31C95.24,29.91,90.1,21,82,13.21c7.63,10,7.78,19.33,31.66,24.72l2.52-4.62Z"/></g></g></svg>